<svg id="Group_63" data-name="Group 63" xmlns="http://www.w3.org/2000/svg" xmlns:xlink="http://www.w3.org/1999/xlink" width="25.752" height="25.752" viewBox="0 0 25.752 25.752">
  <defs>
    <clipPath id="clip-path">
      <rect id="Rectangle_8" data-name="Rectangle 8" width="25.752" height="25.752" fill="#1a3167"/>
    </clipPath>
  </defs>
  <g id="Group_1" data-name="Group 1" clip-path="url(#clip-path)">
    <path id="Path_2" data-name="Path 2" d="M35.437,37.129H25.075l2.287,2.287A1.037,1.037,0,1,1,25.9,40.883l-4.057-4.057a1.061,1.061,0,0,1-.131-.159c-.016-.024-.027-.05-.041-.076a.614.614,0,0,1-.086-.206c-.009-.03-.021-.059-.027-.09a1.042,1.042,0,0,1,0-.406c.006-.031.018-.06.027-.09a.947.947,0,0,1,.032-.1.974.974,0,0,1,.054-.1c.014-.025.025-.051.041-.076a1.037,1.037,0,0,1,.131-.159L25.9,31.3a1.037,1.037,0,0,1,1.467,1.467l-2.287,2.287H35.437a1.037,1.037,0,1,1,0,2.074" transform="translate(-16.128 -23.216)" fill="#1a3167"/>
    <path id="Path_3" data-name="Path 3" d="M12.876,25.752A12.876,12.876,0,1,1,25.753,12.875,12.891,12.891,0,0,1,12.876,25.752m0-23.678a10.8,10.8,0,1,0,10.8,10.8,10.814,10.814,0,0,0-10.8-10.8" transform="translate(0 0.001)" fill="#1a3167"/>
  </g>
</svg>
