<svg id="Group_64" data-name="Group 64" xmlns="http://www.w3.org/2000/svg" xmlns:xlink="http://www.w3.org/1999/xlink" width="25.752" height="25.752" viewBox="0 0 25.752 25.752">
  <defs>
    <clipPath id="clip-path">
      <rect id="Rectangle_8" data-name="Rectangle 8" width="25.752" height="25.752" fill="#1a3167"/>
    </clipPath>
  </defs>
  <g id="Group_1" data-name="Group 1" transform="translate(0)" clip-path="url(#clip-path)">
    <path id="Path_2" data-name="Path 2" d="M22.572,37.129H32.934l-2.287,2.287a1.037,1.037,0,1,0,1.467,1.467l4.057-4.057a1.06,1.06,0,0,0,.131-.159c.016-.024.027-.05.041-.076a.614.614,0,0,0,.086-.206c.009-.03.021-.059.027-.09a1.042,1.042,0,0,0,0-.406c-.006-.031-.018-.06-.027-.09a.946.946,0,0,0-.032-.1.974.974,0,0,0-.054-.1c-.014-.025-.025-.051-.041-.076a1.036,1.036,0,0,0-.131-.159L32.114,31.3a1.037,1.037,0,0,0-1.467,1.467l2.287,2.287H22.572a1.037,1.037,0,1,0,0,2.074" transform="translate(-16.129 -23.216)" fill="#1a3167"/>
    <path id="Path_3" data-name="Path 3" d="M12.876,25.751A12.876,12.876,0,1,0,0,12.875,12.891,12.891,0,0,0,12.876,25.751m0-23.678a10.8,10.8,0,1,1-10.8,10.8,10.814,10.814,0,0,1,10.8-10.8" transform="translate(0 0.001)" fill="#1a3167"/>
  </g>
</svg>
