<svg xmlns="http://www.w3.org/2000/svg" xmlns:xlink="http://www.w3.org/1999/xlink" width="62" height="65" viewBox="0 0 62 65">
  <defs>
    <clipPath id="clip-path">
      <rect id="Rectangle_49" data-name="Rectangle 49" width="62" height="65" transform="translate(-0.399 0.188)" fill="#ffc300"/>
    </clipPath>
    <clipPath id="clip-path-2">
      <rect id="Rectangle_47" data-name="Rectangle 47" width="37.182" height="33.949" fill="none" stroke="#fff" stroke-width="2"/>
    </clipPath>
  </defs>
  <g id="Group_99" data-name="Group 99" transform="translate(0.399 -0.188)">
    <g id="Group_86" data-name="Group 86" transform="translate(0 0)" clip-path="url(#clip-path)">
      <path id="Path_413" data-name="Path 413" d="M62.42,31.21A31.21,31.21,0,1,1,31.21,0,31.21,31.21,0,0,1,62.42,31.21" transform="translate(-0.437 0.148)" fill="#f9d691"/>
      <path id="Path_414" data-name="Path 414" d="M465.527,351.232a1.519,1.519,0,0,1,0,2.63l-10.91,6.3-10.91,6.3a1.519,1.519,0,0,1-2.278-1.315v-25.2a1.519,1.519,0,0,1,2.278-1.315l10.91,6.3Z" transform="translate(-419.573 -321.189)" fill="#f9d691"/>
    </g>
    <g id="Group_85" data-name="Group 85" transform="translate(13.01 13.833)">
      <g id="Group_82" data-name="Group 82">
        <g id="Group_81" data-name="Group 81" clip-path="url(#clip-path-2)">
          <path id="Path_410" data-name="Path 410" d="M6,147.455H0v13.357H6l11.336,8.411s2.084,1.743,2.084-.057V138.842c0-1.415-1.838-.032-1.838-.032Z" transform="translate(0 -136.451)" fill="none" stroke="#fff" stroke-width="2"/>
        </g>
      </g>
      <g id="Group_84" data-name="Group 84">
        <g id="Group_83" data-name="Group 83" clip-path="url(#clip-path-2)">
          <path id="Path_411" data-name="Path 411" d="M1836.324,626.983a1.523,1.523,0,0,0-2.153,2.153,10.056,10.056,0,0,1,0,14.2,1.525,1.525,0,1,0,2.153,2.16,13.1,13.1,0,0,0,0-18.515" transform="translate(-1810.452 -618.587)" fill="#fff"/>
          <path id="Path_412" data-name="Path 412" d="M2162.118,247.947a1.529,1.529,0,0,0-2.165,2.16,16.879,16.879,0,0,1,0,23.87,1.529,1.529,0,0,0,1.08,2.609,1.547,1.547,0,0,0,1.085-.45,19.955,19.955,0,0,0,0-28.189" transform="translate(-2132.104 -244.357)" fill="#fff"/>
        </g>
      </g>
    </g>
  </g>
</svg>
