<svg xmlns="http://www.w3.org/2000/svg" width="15.69" height="10.476" viewBox="0 0 15.69 10.476">
  <path id="Path_25981" data-name="Path 25981" d="M733.709,24.176a.678.678,0,0,1-.677-.677V14.677a.678.678,0,0,1,.677-.677h14.037a.677.677,0,0,1,.677.677V23.5a.677.677,0,0,1-.677.677Zm.14-.571-.011.011-.188.209h14.165l-.2-.212-.008-.008L744.2,19.4a.175.175,0,1,1,.273-.221l3.6,4.445V14.6l-6.6,4.948a1.311,1.311,0,0,1-1.494,0l-6.6-4.948v9.022l3.6-4.445a.175.175,0,0,1,.273.221Zm6.882-4.173a.908.908,0,0,0,.534-.164l6.556-4.917H733.633l6.557,4.918a.907.907,0,0,0,.533.163h.008Z" transform="translate(-732.882 -13.85)" stroke="#000" stroke-width="0.3"/>
</svg>
