<svg id="Group_6252" data-name="Group 6252" xmlns="http://www.w3.org/2000/svg" width="12.096" height="17.82" viewBox="0 0 12.096 17.82">
  <g id="Group_294" data-name="Group 294" transform="translate(0)">
    <g id="Group_292" data-name="Group 292" transform="translate(0)">
      <path id="Path_166" data-name="Path 166" d="M85,0a6.055,6.055,0,0,0-6.048,6.048c0,1.34.789,3.378,2.483,6.414,1.156,2.071,2.307,3.821,2.355,3.895l.832,1.261a.453.453,0,0,0,.756,0l.832-1.26c.048-.073,1.19-1.807,2.355-3.895,1.694-3.035,2.483-5.074,2.483-6.414A6.055,6.055,0,0,0,85,0Zm2.774,12.02c-1.149,2.058-2.273,3.765-2.32,3.837L85,16.544l-.453-.687c-.048-.072-1.18-1.795-2.32-3.837C80.66,9.2,79.863,7.195,79.863,6.048a5.142,5.142,0,1,1,10.283,0C90.146,7.195,89.35,9.2,87.778,12.02Z" transform="translate(-78.957 0)" fill="#fff"/>
      <path id="Path_167" data-name="Path 167" d="M156.644,73.291A3.353,3.353,0,1,0,160,76.644,3.357,3.357,0,0,0,156.644,73.291Zm0,5.8a2.447,2.447,0,1,1,2.447-2.447A2.45,2.45,0,0,1,156.644,79.091Z" transform="translate(-150.596 -70.634)" fill="#fff"/>
    </g>
  </g>
</svg>
