<svg xmlns="http://www.w3.org/2000/svg" xmlns:xlink="http://www.w3.org/1999/xlink" width="63" height="65" viewBox="0 0 63 65">
  <defs>
    <clipPath id="clip-path">
      <rect id="Rectangle_51" data-name="Rectangle 51" width="63" height="65" transform="translate(-0.107 -0.475)" fill="#ffc300"/>
    </clipPath>
  </defs>
  <g id="Group_102" data-name="Group 102" transform="translate(0.107 0.475)" clip-path="url(#clip-path)">
    <path id="Path_418" data-name="Path 418" d="M62.42,31.21A31.21,31.21,0,1,1,31.21,0,31.21,31.21,0,0,1,62.42,31.21" transform="translate(0.294 -0.134)" fill="#f9d691"/>
    <path id="Path_419" data-name="Path 419" d="M465.527,351.232a1.519,1.519,0,0,1,0,2.63l-10.91,6.3-10.91,6.3a1.519,1.519,0,0,1-2.278-1.315v-25.2a1.519,1.519,0,0,1,2.278-1.315l10.91,6.3Z" transform="translate(-418.842 -321.471)" fill="#ffc300"/>
    <path id="Path_420" data-name="Path 420" d="M465.527,351.232a1.519,1.519,0,0,1,0,2.63l-10.91,6.3-10.91,6.3a1.519,1.519,0,0,1-2.278-1.315v-25.2a1.519,1.519,0,0,1,2.278-1.315l10.91,6.3Z" transform="translate(-418.842 -321.471)" fill="#f9d691" stroke="#fff" stroke-miterlimit="10" stroke-width="2"/>
  </g>
</svg>
