<svg xmlns="http://www.w3.org/2000/svg" width="22.39" height="22.354" viewBox="0 0 22.39 22.354">
  <g id="Group_74" data-name="Group 74" transform="translate(0)">
    <path id="Path_405" data-name="Path 405" d="M.087,0H10.152c0,3.529.007,7.057-.005,10.586a12.55,12.55,0,0,1-2.264,7.547A13.519,13.519,0,0,1,1.6,22.353c-.541-1.4-1.062-2.805-1.6-4.206a7.315,7.315,0,0,0,4.259-3.506,8.782,8.782,0,0,0,1.018-4.223H.087q0-5.21,0-10.417" transform="translate(0)" fill="#f9d691"/>
    <path id="Path_406" data-name="Path 406" d="M620.229,10.419c0-3.473-.007-6.946,0-10.419,3.353.005,6.707,0,10.06,0,0,3.525.007,7.052-.005,10.578a12.5,12.5,0,0,1-2.32,7.627,13.593,13.593,0,0,1-6.228,4.147c-.54-1.4-1.06-2.805-1.6-4.206a7.325,7.325,0,0,0,4.26-3.507,8.808,8.808,0,0,0,1.016-4.222Z" transform="translate(-607.904)" fill="#f9d691"/>
  </g>
</svg>
