<svg id="Group_7837" data-name="Group 7837" xmlns="http://www.w3.org/2000/svg" xmlns:xlink="http://www.w3.org/1999/xlink" width="61.316" height="80.612" viewBox="0 0 61.316 80.612">
  <defs>
    <clipPath id="clip-path">
      <rect id="Rectangle_3864" data-name="Rectangle 3864" width="61.316" height="80.612" fill="#1a3167"/>
    </clipPath>
  </defs>
  <g id="Group_7836" data-name="Group 7836" clip-path="url(#clip-path)">
    <path id="Path_24135" data-name="Path 24135" d="M30.658,66.909q-1.2,0-2.383.093a.763.763,0,0,1-.817-.765V64.074a2.108,2.108,0,0,1,2.108-2.108h2.059a2.221,2.221,0,0,1,2.233,2.106A1.533,1.533,0,0,0,35.476,65.6a1.576,1.576,0,0,0,1.447-1.613A5.179,5.179,0,0,0,31.75,58.9H29.566a5.174,5.174,0,0,0-5.174,5.174v2.868a.767.767,0,0,1-.6.745,30.663,30.663,0,1,0,6.866-.777m0,58.251A27.592,27.592,0,1,1,58.25,97.567,27.624,27.624,0,0,1,30.658,125.16" transform="translate(0 -47.614)" fill="#1a3167"/>
    <path id="Path_24136" data-name="Path 24136" d="M61.377,138.7a23.377,23.377,0,1,0,15.145,41.172,1.533,1.533,0,0,0-1.989-2.333,20.314,20.314,0,1,1,3.427-3.746,1.533,1.533,0,0,0,2.5,1.773A23.367,23.367,0,0,0,61.377,138.7" transform="translate(-30.719 -112.122)" fill="#1a3167"/>
    <path id="Path_24137" data-name="Path 24137" d="M153.533,323.563a1.533,1.533,0,0,0,1.533-1.533v-5.1a1.533,1.533,0,1,0-3.066,0v5.1a1.533,1.533,0,0,0,1.533,1.533" transform="translate(-122.875 -254.965)" fill="#1a3167"/>
    <path id="Path_24138" data-name="Path 24138" d="M155.066,170.03v-5.1a1.533,1.533,0,1,0-3.066,0v5.1a1.533,1.533,0,0,0,3.066,0" transform="translate(-122.875 -132.09)" fill="#1a3167"/>
    <path id="Path_24139" data-name="Path 24139" d="M216.232,255.765h5.1a1.533,1.533,0,1,0,0-3.066h-5.1a1.533,1.533,0,1,0,0,3.066" transform="translate(-173.56 -204.278)" fill="#1a3167"/>
    <path id="Path_24140" data-name="Path 24140" d="M70.862,254.232a1.533,1.533,0,0,0-1.533-1.533h-5.1a1.533,1.533,0,1,0,0,3.066h5.1a1.533,1.533,0,0,0,1.533-1.533" transform="translate(-50.685 -204.278)" fill="#1a3167"/>
    <path id="Path_24141" data-name="Path 24141" d="M142.41,237.645a5.465,5.465,0,1,0-1.6,3.864,5.43,5.43,0,0,0,1.6-3.864m-3.768,1.7a2.4,2.4,0,1,1,0-3.393,2.4,2.4,0,0,1,0,3.393" transform="translate(-106.287 -187.691)" fill="#1a3167"/>
    <path id="Path_24142" data-name="Path 24142" d="M171.6,200.859a1.533,1.533,0,1,0,2.5,1.77l3.857-5.453a3.865,3.865,0,0,0-5.386-5.386l-5.332,3.771a1.533,1.533,0,0,0,1.77,2.5l5.332-3.771a.8.8,0,0,1,1.113,1.113Z" transform="translate(-134.669 -154.465)" fill="#1a3167"/>
    <path id="Path_24143" data-name="Path 24143" d="M91.516,277.721a3.853,3.853,0,0,0,4.961.422l5.332-3.771a1.533,1.533,0,0,0-1.77-2.5l-5.332,3.771a.794.794,0,0,1-1.012-.076l-.013-.013a.8.8,0,0,1-.087-1.024l3.857-5.453a1.533,1.533,0,0,0-2.5-1.77l-3.857,5.453a3.854,3.854,0,0,0,.4,4.94l.025.025" transform="translate(-73.061 -215.561)" fill="#1a3167"/>
    <path id="Path_24144" data-name="Path 24144" d="M107.065,15.119A1.533,1.533,0,0,0,108,13.163a7.569,7.569,0,1,1,14.273,0,1.533,1.533,0,1,0,2.89,1.024,10.635,10.635,0,1,0-20.053,0,1.534,1.534,0,0,0,1.957.933" transform="translate(-84.476)" fill="#1a3167"/>
  </g>
</svg>
