<svg id="Group_7843" data-name="Group 7843" xmlns="http://www.w3.org/2000/svg" xmlns:xlink="http://www.w3.org/1999/xlink" width="82.084" height="72.071" viewBox="0 0 82.084 72.071">
  <defs>
    <clipPath id="clip-path">
      <rect id="Rectangle_3868" data-name="Rectangle 3868" width="82.084" height="72.071" fill="#1a3167"/>
    </clipPath>
  </defs>
  <g id="Group_7842" data-name="Group 7842" clip-path="url(#clip-path)">
    <path id="Path_24151" data-name="Path 24151" d="M37.585,158.932a.756.756,0,0,1,.693.429l5.181,10.361a1.55,1.55,0,1,0,2.773-1.386l-5.181-10.361a3.874,3.874,0,0,0-6.931,0l-8.594,17.188a.775.775,0,0,1-1.359.051l-2.629-4.4a3.843,3.843,0,0,0-3.326-1.888h0a3.843,3.843,0,0,0-3.327,1.888L.219,195.368a1.55,1.55,0,1,0,2.661,1.589L17.546,172.4a.775.775,0,0,1,1.331,0l2.629,4.4a3.875,3.875,0,0,0,6.792-.253l8.594-17.189a.756.756,0,0,1,.693-.428" transform="translate(0 -125.641)" fill="#1a3167"/>
    <path id="Path_24152" data-name="Path 24152" d="M397.947,338.11a1.55,1.55,0,1,0-2.661,1.589l2.045,3.425a1.579,1.579,0,0,0,1.443.943,1.55,1.55,0,0,0,1.331-2.344Z" transform="translate(-318.526 -271.995)" fill="#1a3167"/>
    <path id="Path_24153" data-name="Path 24153" d="M216.975,241.658l-4.775-8a3.843,3.843,0,0,0-3.327-1.888h0a3.842,3.842,0,0,0-3.327,1.888l-1.84,3.08a.775.775,0,0,1-1.331,0l-6.838-11.45a3.842,3.842,0,0,0-3.326-1.888h0a3.843,3.843,0,0,0-3.327,1.888L174.22,249.848a1.55,1.55,0,1,0,2.661,1.589l14.665-24.556a.775.775,0,0,1,1.331,0l6.838,11.45a3.875,3.875,0,0,0,6.653,0l1.84-3.08a.775.775,0,0,1,1.331,0l4.775,8a1.55,1.55,0,1,0,2.661-1.589" transform="translate(-140.29 -180.122)" fill="#1a3167"/>
    <path id="Path_24154" data-name="Path 24154" d="M298.46,56.119a8.059,8.059,0,1,0-8.06-8.059,8.069,8.069,0,0,0,8.06,8.059m0-13.019a4.96,4.96,0,1,1-4.96,4.96,4.965,4.965,0,0,1,4.96-4.96" transform="translate(-234.138 -32.25)" fill="#1a3167"/>
    <path id="Path_24155" data-name="Path 24155" d="M327.1,135.229v-2.48a1.55,1.55,0,1,0-3.1,0v2.48a1.55,1.55,0,1,0,3.1,0" transform="translate(-261.229 -105.781)" fill="#1a3167"/>
    <path id="Path_24156" data-name="Path 24156" d="M325.551,6.2a1.55,1.55,0,0,0,1.55-1.55V1.55a1.55,1.55,0,1,0-3.1,0v3.1a1.55,1.55,0,0,0,1.55,1.55" transform="translate(-261.229)" fill="#1a3167"/>
    <path id="Path_24157" data-name="Path 24157" d="M383.2,73.55a1.55,1.55,0,0,0,1.55,1.55h2.48a1.55,1.55,0,1,0,0-3.1h-2.48a1.55,1.55,0,0,0-1.55,1.55" transform="translate(-308.959 -58.051)" fill="#1a3167"/>
    <path id="Path_24158" data-name="Path 24158" d="M253.551,75.1h3.1a1.55,1.55,0,0,0,0-3.1h-3.1a1.55,1.55,0,1,0,0,3.1" transform="translate(-203.179 -58.051)" fill="#1a3167"/>
    <path id="Path_24159" data-name="Path 24159" d="M367.412,25.942a1.544,1.544,0,0,0,1.1-.454l1.754-1.754a1.55,1.55,0,0,0-2.192-2.192L366.316,23.3a1.55,1.55,0,0,0,1.1,2.646" transform="translate(-294.98 -17.003)" fill="#1a3167"/>
    <path id="Path_24160" data-name="Path 24160" d="M277.927,112.051a1.55,1.55,0,0,0-2.192,0l-2.192,2.192a1.55,1.55,0,1,0,2.192,2.192l2.192-2.192a1.55,1.55,0,0,0,0-2.192" transform="translate(-220.181 -89.976)" fill="#1a3167"/>
    <path id="Path_24161" data-name="Path 24161" d="M275.3,25.487a1.55,1.55,0,0,0,2.192-2.192l-1.754-1.753a1.55,1.55,0,0,0-2.192,2.192Z" transform="translate(-220.181 -17.003)" fill="#1a3167"/>
    <path id="Path_24162" data-name="Path 24162" d="M367.34,116.89a1.55,1.55,0,0,0,1.1-2.646l-2.192-2.192a1.55,1.55,0,0,0-2.192,2.192l2.192,2.192a1.544,1.544,0,0,0,1.1.454" transform="translate(-293.155 -89.977)" fill="#1a3167"/>
    <path id="Path_24163" data-name="Path 24163" d="M78.2,92.912H75.617a1.6,1.6,0,0,0-1.609,1.4,1.551,1.551,0,0,0,1.543,1.7H80.2a1.558,1.558,0,0,0,1.55-1.563,4.655,4.655,0,0,1,4.65-4.637c.123,0,.245.005.367.016a.769.769,0,0,1,.664.962q-.034.133-.063.267a1.587,1.587,0,0,0,.993,1.834,1.55,1.55,0,0,0,2.031-1.152,5.814,5.814,0,0,1,11.372-.077,1.55,1.55,0,1,0,3.036-.624A8.9,8.9,0,0,0,89.543,86.88a.756.756,0,0,1-.783.2,7.747,7.747,0,0,0-9.818,5.276.768.768,0,0,1-.74.555" transform="translate(-59.664 -67.726)" fill="#1a3167"/>
    <path id="Path_24164" data-name="Path 24164" d="M308.266,180.77a6.5,6.5,0,0,0-1.72.233.763.763,0,0,1-.743-.19,7.434,7.434,0,0,0-12.542,3.574,1.591,1.591,0,0,0,.892,1.841,1.552,1.552,0,0,0,2.12-1.1,4.341,4.341,0,0,1,8.495.039,1.549,1.549,0,0,0,2.035,1.151,1.6,1.6,0,0,0,.983-1.863l0-.016a.461.461,0,0,1,.434-.565h.05a3.414,3.414,0,0,1,3.41,3.378,1.559,1.559,0,0,0,1.538,1.582h3.664a1.6,1.6,0,0,0,1.609-1.4,1.55,1.55,0,0,0-1.543-1.7h-1.786a.774.774,0,0,1-.732-.529,6.513,6.513,0,0,0-6.161-4.431" transform="translate(-236.411 -143.998)" fill="#1a3167"/>
    <path id="Path_24165" data-name="Path 24165" d="M71.678,31.444a2.32,2.32,0,0,1,2.7,1.229,1.546,1.546,0,0,0,1.137,1.494,1.566,1.566,0,0,0,.407.054c.018,0,.034,0,.052,0s.034,0,.052,0a1.566,1.566,0,0,0,.407-.054,1.546,1.546,0,0,0,1.137-1.495,2.327,2.327,0,0,1,2.7-1.228,1.552,1.552,0,0,0,1.951-1.362,1.587,1.587,0,0,0-1.216-1.65,5.411,5.411,0,0,0-4.559.9.786.786,0,0,1-.943-.006,5.212,5.212,0,0,0-.52-.342,5.39,5.39,0,0,0-4.044-.547,1.585,1.585,0,0,0-1.212,1.65,1.552,1.552,0,0,0,1.951,1.361" transform="translate(-56.212 -22.785)" fill="#1a3167"/>
    <path id="Path_24166" data-name="Path 24166" d="M7.678,89.445a2.32,2.32,0,0,1,2.7,1.229,1.546,1.546,0,0,0,1.137,1.494,1.566,1.566,0,0,0,.407.054c.018,0,.034,0,.052,0s.034,0,.052,0a1.566,1.566,0,0,0,.407-.054,1.546,1.546,0,0,0,1.137-1.495,2.327,2.327,0,0,1,2.7-1.228,1.552,1.552,0,0,0,1.951-1.361,1.586,1.586,0,0,0-1.215-1.65,5.412,5.412,0,0,0-4.56.895.786.786,0,0,1-.943-.006,5.2,5.2,0,0,0-.521-.342,5.392,5.392,0,0,0-4.043-.547,1.586,1.586,0,0,0-1.214,1.65,1.552,1.552,0,0,0,1.951,1.362" transform="translate(-4.612 -69.549)" fill="#1a3167"/>
    <path id="Path_24167" data-name="Path 24167" d="M77.831,299a1.551,1.551,0,0,0-2.124.542l-1.557,2.623a1.55,1.55,0,1,0,2.665,1.582l1.557-2.623A1.55,1.55,0,0,0,77.831,299" transform="translate(-59.609 -240.901)" fill="#1a3167"/>
    <path id="Path_24168" data-name="Path 24168" d="M52.842,334.481a1.551,1.551,0,0,0-2.124.542l-2.5,4.211a1.55,1.55,0,1,0,2.665,1.582l2.5-4.211a1.55,1.55,0,0,0-.542-2.124" transform="translate(-38.701 -269.504)" fill="#1a3167"/>
  </g>
</svg>
