<svg id="Group_7841" data-name="Group 7841" xmlns="http://www.w3.org/2000/svg" xmlns:xlink="http://www.w3.org/1999/xlink" width="76.5" height="65.227" viewBox="0 0 76.5 65.227">
  <defs>
    <clipPath id="clip-path">
      <rect id="Rectangle_3867" data-name="Rectangle 3867" width="76.5" height="65.226" fill="#1a3167"/>
    </clipPath>
  </defs>
  <g id="Group_7840" data-name="Group 7840" clip-path="url(#clip-path)">
    <path id="Path_24145" data-name="Path 24145" d="M71.93,93.5V88.882A1.514,1.514,0,0,0,70.6,87.354a1.472,1.472,0,0,0-1.616,1.464V93.5a.73.73,0,0,1-.554.71A8.472,8.472,0,0,0,62,102.427c0,3.906,4.114,14.344,8.459,14.344,1.827,0,3.766-1.945,5.764-5.781,1.243-2.387,2.695-6.061,2.695-8.563a8.472,8.472,0,0,0-6.434-8.212.73.73,0,0,1-.554-.71m-1.5,20.321c-.41-.057-1.742-1.156-3.278-4.218a19.436,19.436,0,0,1-2.213-7.181,5.517,5.517,0,0,1,11.034,0c0,3.691-4.06,10.973-5.542,11.4" transform="translate(-50.599 -71.285)" fill="#1a3167"/>
    <path id="Path_24146" data-name="Path 24146" d="M96.575,155.347a2.575,2.575,0,1,0,2.575,2.575,2.575,2.575,0,0,0-2.575-2.575" transform="translate(-76.714 -126.78)" fill="#1a3167"/>
    <path id="Path_24147" data-name="Path 24147" d="M101.471,42.335a1.471,1.471,0,0,0,1.471-1.471V36.818a1.471,1.471,0,0,0-2.942,0v4.046a1.471,1.471,0,0,0,1.471,1.471" transform="translate(-81.611 -28.847)" fill="#1a3167"/>
    <path id="Path_24148" data-name="Path 24148" d="M74.357,9.9,58.91.63a4.405,4.405,0,0,0-4.541,0L39.007,9.847a1.47,1.47,0,0,1-1.514,0L22.131.63a4.405,4.405,0,0,0-4.541,0L2.143,9.9A4.435,4.435,0,0,0,0,13.682V60.995a3.272,3.272,0,0,0,1.679,2.881,3.272,3.272,0,0,0,3.333-.042L19.1,55.379a1.469,1.469,0,0,1,1.514,0L35.979,64.6a4.4,4.4,0,0,0,4.541,0l15.362-9.217a1.469,1.469,0,0,1,1.514,0l14.09,8.454A3.31,3.31,0,0,0,76.5,60.995V13.682A4.435,4.435,0,0,0,74.357,9.9M55.882,3.153a1.471,1.471,0,0,1,1.514,0l15.447,9.268a1.479,1.479,0,0,1,.714,1.262V38.5a.368.368,0,0,1-.562.312L58.632,29.911a1.1,1.1,0,0,1-.522-.938V17.6a1.514,1.514,0,0,0-1.327-1.527,1.471,1.471,0,0,0-1.616,1.464v11.44a1.1,1.1,0,0,1-.522.938L40.283,38.816a.368.368,0,0,1-.562-.312V12.736a4.413,4.413,0,0,0,.8-.367ZM39.007,62.073a1.471,1.471,0,0,1-1.514,0L22.131,52.856a3.775,3.775,0,0,0-.366-.192A.736.736,0,0,1,21.332,52V48.859a1.514,1.514,0,0,0-1.327-1.528A1.471,1.471,0,0,0,18.389,48.8V52a.736.736,0,0,1-.433.668,3.778,3.778,0,0,0-.366.192L3.5,61.31a.368.368,0,0,1-.557-.315V43.242a1.1,1.1,0,0,1,.523-.938L9.916,38.31a1.514,1.514,0,0,0,.6-1.933,1.472,1.472,0,0,0-2.095-.6L3.5,38.819a.368.368,0,0,1-.561-.313V13.682a1.479,1.479,0,0,1,.714-1.262L19.1,3.153a1.471,1.471,0,0,1,1.514,0L35.979,12.37a4.42,4.42,0,0,0,.8.367v25.77a.368.368,0,0,1-.561.313L31.3,35.775a1.472,1.472,0,0,0-2.1.6,1.514,1.514,0,0,0,.6,1.933L36.256,42.3a1.1,1.1,0,0,1,.523.938v3.651a1.514,1.514,0,0,0,1.326,1.528,1.471,1.471,0,0,0,1.616-1.464V43.24a1.1,1.1,0,0,1,.522-.938L54.607,33.4a.368.368,0,0,1,.562.313V52a.736.736,0,0,1-.433.668,3.778,3.778,0,0,0-.366.192Zm34.364-.758a.353.353,0,0,1-.371,0L58.91,52.856a3.8,3.8,0,0,0-.366-.192A.736.736,0,0,1,58.111,52V33.71a.368.368,0,0,1,.562-.313L73.036,42.3a1.1,1.1,0,0,1,.522.938V60.995a.351.351,0,0,1-.186.32" transform="translate(0 0)" fill="#1a3167"/>
    <path id="Path_24149" data-name="Path 24149" d="M201.471,278.043A1.471,1.471,0,0,0,200,279.514V283.8a1.471,1.471,0,1,0,2.942,0v-4.286a1.471,1.471,0,0,0-1.471-1.471" transform="translate(-163.221 -226.912)" fill="#1a3167"/>
    <path id="Path_24150" data-name="Path 24150" d="M301.471,42.335a1.471,1.471,0,0,0,1.471-1.471V36.818a1.471,1.471,0,1,0-2.942,0v4.046a1.471,1.471,0,0,0,1.471,1.471" transform="translate(-244.832 -28.847)" fill="#1a3167"/>
  </g>
</svg>
