<svg xmlns="http://www.w3.org/2000/svg" xmlns:xlink="http://www.w3.org/1999/xlink" width="55.434" height="62.414" viewBox="0 0 55.434 62.414">
  <defs>
    <clipPath id="clip-path">
      <rect id="Rectangle_27" data-name="Rectangle 27" width="55.434" height="62.414" fill="none" stroke="#1a3167" stroke-width="1"/>
    </clipPath>
  </defs>
  <g id="Group_34" data-name="Group 34" transform="translate(0 0)">
    <g id="Group_33" data-name="Group 33" transform="translate(0 0)" clip-path="url(#clip-path)">
      <path id="Path_135" data-name="Path 135" d="M27.385,22.924h0a2.8,2.8,0,0,0,2.446.9,2.833,2.833,0,0,1,3.187,2.7,2.864,2.864,0,0,0,1.3,2.278,2.874,2.874,0,0,1,.726,4.141,2.878,2.878,0,0,0-.45,2.59,2.852,2.852,0,0,1-2.076,3.641,2.828,2.828,0,0,0-1.992,1.691,2.806,2.806,0,0,1-3.9,1.437,2.8,2.8,0,0,0-2.6,0,2.811,2.811,0,0,1-3.909-1.437,2.832,2.832,0,0,0-1.994-1.691,2.858,2.858,0,0,1-2.082-3.641,2.879,2.879,0,0,0-.454-2.59A2.872,2.872,0,0,1,16.3,28.8a2.854,2.854,0,0,0,1.3-2.278,2.827,2.827,0,0,1,3.182-2.7,2.8,2.8,0,0,0,2.444-.9A2.8,2.8,0,0,1,27.385,22.924Z" transform="translate(4.338 6.362)" fill="none" stroke="#1a3167" stroke-miterlimit="10" stroke-width="2"/>
      <circle id="Ellipse_4" data-name="Ellipse 4" cx="4" cy="4" r="4" transform="translate(26 35)" fill="none" stroke="#1a3167" stroke-miterlimit="10" stroke-width="2"/>
      <path id="Path_136" data-name="Path 136" d="M27.735,38V48.313l-3.868-3.868L20,48.313V38" transform="translate(5.783 10.988)" fill="none" stroke="#1a3167" stroke-miterlimit="10" stroke-width="2"/>
      <line id="Line_3" data-name="Line 3" x2="21" transform="translate(19 17)" fill="none" stroke="#1a3167" stroke-miterlimit="10" stroke-width="2"/>
      <line id="Line_4" data-name="Line 4" x2="11" transform="translate(24 22)" fill="none" stroke="#1a3167" stroke-miterlimit="10" stroke-width="2"/>
      <path id="Path_137" data-name="Path 137" d="M22.916,43.446H4.868A3.867,3.867,0,0,1,1,39.578V37H8.735" transform="translate(0.289 10.699)" fill="none" stroke="#1a3167" stroke-miterlimit="10" stroke-width="2"/>
      <path id="Path_138" data-name="Path 138" d="M39.6,6V48.543a3.867,3.867,0,0,1-3.868,3.868H28" transform="translate(8.097 1.735)" fill="none" stroke="#1a3167" stroke-miterlimit="10" stroke-width="2"/>
      <path id="Path_139" data-name="Path 139" d="M4,53.856a3.867,3.867,0,0,0,3.868-3.868V4.868a3.868,3.868,0,1,1,7.735,0V7.446H52.989V4.868A3.867,3.867,0,0,0,49.121,1H11.735" transform="translate(1.157 0.289)" fill="none" stroke="#1a3167" stroke-miterlimit="10" stroke-width="2"/>
    </g>
  </g>
</svg>
