<svg id="Group_36" data-name="Group 36" xmlns="http://www.w3.org/2000/svg" xmlns:xlink="http://www.w3.org/1999/xlink" width="51.454" height="60.188" viewBox="0 0 51.454 60.188">
  <defs>
    <clipPath id="clip-path">
      <rect id="Rectangle_29" data-name="Rectangle 29" width="51.454" height="60.188" fill="none" stroke="#1a3167" stroke-width="1"/>
    </clipPath>
  </defs>
  <g id="Group_35" data-name="Group 35" clip-path="url(#clip-path)">
    <path id="Path_140" data-name="Path 140" d="M9,23.234h3.925A5.337,5.337,0,0,0,16.92,21.76c1.755-1.872,2.5-3.76,4.491-3.76" transform="translate(2.776 5.552)" fill="none" stroke="#1a3167" stroke-miterlimit="10" stroke-width="2"/>
    <path id="Path_141" data-name="Path 141" d="M23.393,22H33.86a3.685,3.685,0,0,1,3.623,3.583c-.167,5.486-.949,16.044-3.623,16.044H22.084c-3.066,0-6.326-3.925-7.851-3.925H9" transform="translate(2.776 6.786)" fill="none" stroke="#1a3167" stroke-miterlimit="10" stroke-width="2"/>
    <rect id="Rectangle_28" data-name="Rectangle 28" width="11" height="20" transform="translate(1 27)" fill="none" stroke="#1a3167" stroke-miterlimit="10" stroke-width="2"/>
    <line id="Line_5" data-name="Line 5" y2="4" transform="translate(7 30)" fill="none" stroke="#1a3167" stroke-miterlimit="10" stroke-width="2"/>
    <path id="Path_142" data-name="Path 142" d="M27.084,1A57.148,57.148,0,0,0,14,2.308c0,9.092,3.2,19.627,10.2,26.169" transform="translate(4.318 0.308)" fill="none" stroke="#1a3167" stroke-miterlimit="10" stroke-width="2"/>
    <line id="Line_6" data-name="Line 6" y2="3" transform="translate(37 49)" fill="none" stroke="#1a3167" stroke-miterlimit="10" stroke-width="2"/>
    <line id="Line_7" data-name="Line 7" y1="3" transform="translate(24 49)" fill="none" stroke="#1a3167" stroke-miterlimit="10" stroke-width="2"/>
    <path id="Path_143" data-name="Path 143" d="M27.776,40H31.7l3.925,2.617v3.925H16V42.617L19.925,40h3.925" transform="translate(4.935 12.338)" fill="none" stroke="#1a3167" stroke-miterlimit="10" stroke-width="2"/>
    <path id="Path_144" data-name="Path 144" d="M18.974,18.414c-3.8,1.151-8.1-3.912-9.094-7.872S11.616,5.151,15.421,4" transform="translate(2.984 1.234)" fill="none" stroke="#1a3167" stroke-miterlimit="10" stroke-width="2"/>
    <path id="Path_145" data-name="Path 145" d="M24,1A57.148,57.148,0,0,1,37.084,2.308c0,9.092-3.2,19.627-10.2,26.169" transform="translate(7.403 0.308)" fill="none" stroke="#1a3167" stroke-miterlimit="10" stroke-width="2"/>
    <path id="Path_146" data-name="Path 146" d="M31.218,18.414c3.8,1.151,8.1-3.912,9.092-7.872S38.575,5.151,34.77,4" transform="translate(9.629 1.234)" fill="none" stroke="#1a3167" stroke-miterlimit="10" stroke-width="2"/>
  </g>
</svg>
