<svg id="Group_25" data-name="Group 25" xmlns="http://www.w3.org/2000/svg" xmlns:xlink="http://www.w3.org/1999/xlink" width="48.806" height="68" viewBox="0 0 48.806 68">
  <defs>
    <clipPath id="clip-path">
      <rect id="Rectangle_19" data-name="Rectangle 19" width="48.806" height="68" fill="none" stroke="#1a3167" stroke-width="1"/>
    </clipPath>
  </defs>
  <g id="Group_22" data-name="Group 22">
    <g id="Group_21" data-name="Group 21" clip-path="url(#clip-path)">
      <path id="Path_130" data-name="Path 130" d="M23.489,2.259l6.595,13.362,14.746,2.142-10.671,10.4,2.52,14.686L23.489,35.917,10.3,42.851l2.52-14.686L2.149,17.763l14.746-2.142Z" transform="translate(0.914 0.961)" fill="none" stroke="#1a3167" stroke-miterlimit="10" stroke-width="2"/>
    </g>
  </g>
  <line id="Line_1" data-name="Line 1" y2="8.551" transform="translate(20.127 42.346)" fill="none" stroke="#1a3167" stroke-miterlimit="10" stroke-width="2"/>
  <line id="Line_2" data-name="Line 2" y2="8.551" transform="translate(28.679 42.346)" fill="none" stroke="#1a3167" stroke-miterlimit="10" stroke-width="2"/>
  <g id="Group_24" data-name="Group 24">
    <g id="Group_23" data-name="Group 23" clip-path="url(#clip-path)">
      <path id="Path_131" data-name="Path 131" d="M19.122,35.711h5.7a2.85,2.85,0,0,1,2.85,2.85v4.276" transform="translate(8.132 15.186)" fill="none" stroke="#1a3167" stroke-miterlimit="10" stroke-width="2"/>
      <path id="Path_132" data-name="Path 132" d="M9.122,42.837V38.561a2.85,2.85,0,0,1,2.85-2.85h8.551" transform="translate(3.879 15.186)" fill="none" stroke="#1a3167" stroke-miterlimit="10" stroke-width="2"/>
      <path id="Path_133" data-name="Path 133" d="M26.075,40.711h8.551a2.85,2.85,0,0,1,2.85,2.851v5.7H6.122v-5.7a2.85,2.85,0,0,1,2.85-2.851H23.225" transform="translate(2.603 17.312)" fill="none" stroke="#1a3167" stroke-miterlimit="10" stroke-width="2"/>
    </g>
  </g>
</svg>
